<?xml version="1.0" encoding="UTF-8"?>
<svg width="680" height="200" viewBox="0 0 680 200" xmlns="http://www.w3.org/2000/svg" role="img">
  <title>Project 86 - dark mode horizontal lockup</title>
  <desc>Project 86 brand lockup with hex icon, divider, wordmark, and tagline on a dark navy background.</desc>
  <rect x="0" y="0" width="680" height="200" fill="#0F172A"/>
  <g transform="translate(180, 95)">
    <polygon points="44,6 26,-25.18 -10,-25.18 -28,6 -10,37.18 26,37.18" fill="none" stroke="#22D3EE" stroke-width="0.8" opacity="0.3"/>
    <polygon points="41,4 23,-27.18 -13,-27.18 -31,4 -13,35.18 23,35.18" fill="none" stroke="#22D3EE" stroke-width="0.8" opacity="0.55"/>
    <polygon points="36,0 18,-31.18 -18,-31.18 -36,0 -18,31.18 18,31.18" fill="#0F172A" stroke="#22D3EE" stroke-width="2"/>
    <polygon points="29,0 14.5,-25.11 -14.5,-25.11 -29,0 -14.5,25.11 14.5,25.11" fill="none" stroke="#22D3EE" stroke-width="0.4" opacity="0.4"/>
    <text y="-14" font-family="ui-monospace, 'SF Mono', Menlo, monospace" font-size="10" fill="#22D3EE" text-anchor="middle" letter-spacing="1.5" opacity="0.6">&lt;/&gt;</text>
    <text y="13" font-family="Inter, system-ui, -apple-system, sans-serif" font-weight="200" font-size="28" fill="#F8FAFC" text-anchor="middle" letter-spacing="-0.5">86</text>
  </g>
  <line x1="245" y1="65" x2="245" y2="125" stroke="#22D3EE" stroke-width="1" opacity="0.6"/>
  <text x="270" y="115" font-family="Inter, system-ui, -apple-system, sans-serif" font-weight="200" font-size="38" fill="#F8FAFC" letter-spacing="5">PROJECT 86</text>
  <text x="270" y="142" font-family="ui-monospace, 'SF Mono', Menlo, monospace" font-size="11" fill="#22D3EE" letter-spacing="0.8" opacity="0.75">// ai estimating · project tracking</text>
</svg>
